<svg width="88" height="132" viewBox="0 0 88 132" fill="none" xmlns="http://www.w3.org/2000/svg">
<path d="M0.625962 123.2V131H7.04596V129.2H2.72596V127.9H6.62596V126.2H2.72596V125H7.02596V123.2H0.625962Z" fill="#F5F7F9"/>
<path d="M9.89018 131H11.9902V125H14.4002V123.2H7.50018V125H9.89018V131Z" fill="#F5F7F9"/>
<path d="M14.9521 131H17.0521V127.92H20.0521V131H22.1521V123.2H20.0521V126.12H17.0521V123.2H14.9521V131Z" fill="#F5F7F9"/>
<path d="M26.1533 123.2V131H30.8633C32.7733 131 33.3433 130.59 33.3433 128.95C33.3433 127.77 32.7833 127.18 31.6233 127.06C32.5833 126.92 33.0633 126.35 33.0633 125.23C33.0633 123.61 32.5533 123.2 30.8633 123.2H26.1533ZM28.2533 129.4V127.84H30.2233C30.8733 127.84 31.1533 128.08 31.1533 128.63C31.1533 129.32 31.0633 129.4 30.2233 129.4H28.2533ZM28.2533 126.24V124.8H30.0233C30.7933 124.8 30.8733 124.87 30.8733 125.53C30.8733 126.03 30.6233 126.24 30.0233 126.24H28.2533Z" fill="#F5F7F9"/>
<path d="M39.8392 123.2H36.3592L33.7892 131H36.0492L36.5192 129.48H39.5192L39.9392 131H42.3392L39.8392 123.2ZM37.0592 127.78L38.0092 124.9H38.0692L38.9992 127.78H37.0592Z" fill="#F5F7F9"/>
<path d="M42.8916 123.2V131H48.7916V129.2H44.9916V123.2H42.8916Z" fill="#F5F7F9"/>
<path d="M54.9369 123.2H51.4569L48.8869 131H51.1469L51.6169 129.48H54.6169L55.0369 131H57.4369L54.9369 123.2ZM52.1569 127.78L53.1069 124.9H53.1669L54.0969 127.78H52.1569Z" fill="#F5F7F9"/>
<path d="M57.8916 131H59.9916V126.75H60.0516L63.5116 131H65.4916V123.2H63.3916V127.46H63.3316L59.8816 123.2H57.8916V131Z" fill="#F5F7F9"/>
<path d="M74.2451 127.69H72.0451C72.0651 129.25 71.8851 129.42 70.2851 129.42C68.6751 129.42 68.4951 129.19 68.4951 127.1C68.4951 125.01 68.6751 124.78 70.2851 124.78C71.8851 124.78 72.0651 124.95 72.0451 126.49H74.2451C74.2651 123.76 73.4751 123.08 70.2851 123.08C67.0951 123.08 66.2951 123.88 66.2951 127.1C66.2951 130.32 67.0951 131.12 70.2851 131.12C73.4751 131.12 74.2651 130.43 74.2451 127.69Z" fill="#F5F7F9"/>
<path d="M75.0498 123.2V131H81.4698V129.2H77.1498V127.9H81.0498V126.2H77.1498V125H81.4498V123.2H75.0498Z" fill="#F5F7F9"/>
<path fill-rule="evenodd" clip-rule="evenodd" d="M74 116C70.1338 116 67 112.866 67 109C67 105.134 70.1338 102 74 102C77.8662 102 81 105.134 81 109C81 112.866 77.8662 116 74 116ZM77.4974 109.096L74.2179 103.75L70.9375 109.096L74.2179 111.001L77.4974 109.096ZM77.5 109.707L74.2179 111.611L70.9375 109.708L74.2179 114.248L77.5 109.707Z" fill="#F5F7F9"/>
<path d="M74.2179 103.75L74.2178 107.631L77.4974 109.096L74.2179 103.75ZM74.2179 111.611V114.248L77.5 109.707L74.2179 111.611Z" fill="black" fill-opacity="0.298"/>
<path d="M74.2179 111.001L77.4974 109.096L74.2178 107.631L74.2179 111.001Z" fill="black" fill-opacity="0.801"/>
<path d="M70.9375 109.096L74.2179 111.001L74.2178 107.631L70.9375 109.096Z" fill="black" fill-opacity="0.298"/>
<path d="M8.54364 114V111.84H4.89564L7.49964 109.608C8.47164 108.768 8.31564 108.24 8.35164 106.896C8.42364 104.976 7.66764 104.496 4.55964 104.496C1.57164 104.496 0.707641 105.144 0.707641 107.736H3.34764C3.34764 106.668 3.46764 106.536 4.54764 106.536C5.77164 106.536 5.90364 106.632 5.90364 107.352C5.90364 107.868 5.71164 108.168 4.91964 108.828L0.779641 112.32V114H8.54364Z" fill="#F5F7F9"/>
<path d="M13.2172 104.64V114H20.9212V111.84H15.7372V110.28H20.4172V108.24H15.7372V106.8H20.8972V104.64H13.2172Z" fill="#F5F7F9"/>
<path d="M24.3342 114H26.8542V106.8H29.7462V104.64H21.4662V106.8H24.3342V114Z" fill="#F5F7F9"/>
<path d="M30.4086 114H32.9286V110.304H36.5286V114H39.0486V104.64H36.5286V108.144H32.9286V104.64H30.4086V114Z" fill="#F5F7F9"/>
<path d="M0.838853 45.2001V53.0001H7.25885V51.2001H2.93885V49.9001H6.83885V48.2001H2.93885V47.0001H7.23885V45.2001H0.838853Z" fill="#F5F7F9"/>
<path d="M10.1031 53.0001H12.2031V47.0001H14.6131V45.2001H7.71307V47.0001H10.1031V53.0001Z" fill="#F5F7F9"/>
<path d="M15.165 53.0001H17.265V49.9201H20.265V53.0001H22.365V45.2001H20.265V48.1201H17.265V45.2001H15.165V53.0001Z" fill="#F5F7F9"/>
<path d="M26.3662 45.2001V53.0001H28.4662V50.4501H31.0062C32.9462 50.3501 33.4262 49.8201 33.4262 47.8001C33.4262 45.7201 32.9062 45.2001 30.8262 45.2001H26.3662ZM28.4662 48.6501V46.9001H30.2862C31.2262 46.9001 31.3262 46.9901 31.3262 47.8101C31.3262 48.5701 31.2262 48.6501 30.2862 48.6501H28.4662Z" fill="#F5F7F9"/>
<path d="M38.6875 45.2001H34.2275V53.0001H36.3275V50.2501H37.8875C38.9775 50.2501 39.0875 50.3401 39.0875 51.2001V53.0001H41.2875V51.0801C41.2875 50.0801 40.7575 49.6201 39.7175 49.5101C40.8075 49.3601 41.2875 48.7501 41.2875 47.4601C41.2875 45.6501 40.7675 45.2001 38.6875 45.2001ZM36.3275 48.6501V46.9001H38.1475C39.0875 46.9001 39.1875 46.9901 39.1875 47.7601C39.1875 48.5601 39.0875 48.6501 38.1475 48.6501H36.3275Z" fill="#F5F7F9"/>
<path d="M42.1865 53.0001H44.2865V45.2001H42.1865V53.0001Z" fill="#F5F7F9"/>
<path d="M53.0322 49.6901H50.8322C50.8522 51.2501 50.6722 51.4201 49.0722 51.4201C47.4622 51.4201 47.2822 51.1901 47.2822 49.1001C47.2822 47.0101 47.4622 46.7801 49.0722 46.7801C50.6722 46.7801 50.8522 46.9501 50.8322 48.4901H53.0322C53.0522 45.7601 52.2622 45.0801 49.0722 45.0801C45.8822 45.0801 45.0822 45.8801 45.0822 49.1001C45.0822 52.3201 45.8822 53.1201 49.0722 53.1201C52.2622 53.1201 53.0522 52.4301 53.0322 49.6901Z" fill="#F5F7F9"/>
<path d="M53.8369 45.2001V53.0001H60.2569V51.2001H55.9369V49.9001H59.8369V48.2001H55.9369V47.0001H60.2369V45.2001H53.8369Z" fill="#F5F7F9"/>
<path d="M2.74936 29.8801V29.7241H0.46936V29.8801C0.46936 31.7401 1.10536 32.3161 3.44536 32.3881V34.0561H5.12536V32.3761C7.22536 32.2681 7.80136 31.7401 7.80136 30.2161C7.80136 29.1001 7.52536 28.4521 6.37336 28.1161C5.76136 27.9361 5.20936 27.7921 4.03336 27.6001C3.37336 27.4801 3.03736 27.3361 3.03736 26.8681C3.03736 26.2921 3.15736 26.2321 4.16536 26.2321C5.20936 26.2321 5.34136 26.3281 5.34136 27.2281V27.4441H7.62136V27.2281C7.62136 25.4761 7.08136 24.8401 5.12536 24.7081V23.2561H3.44536V24.6841C1.23736 24.7561 0.63736 25.2721 0.63736 26.9641C0.63736 27.9241 0.88936 28.4641 1.87336 28.8361C2.59336 29.1121 3.68536 29.2801 4.10536 29.3641C5.16136 29.5561 5.40136 29.7481 5.40136 30.1681C5.40136 30.7681 5.25736 30.8401 4.10536 30.8401C2.89336 30.8401 2.74936 30.7441 2.74936 29.8801Z" fill="#F5F7F9"/>
<path d="M10.8001 33.0001H13.0801V23.6401H10.9201C10.9201 24.8641 10.6561 25.0921 9.61214 25.0921H8.52014V26.7721H10.8001V33.0001Z" fill="#F5F7F9"/>
<path d="M22.2597 29.7721C22.2597 27.1081 21.6357 26.4361 19.1637 26.4361C17.7477 26.4361 16.9917 26.8321 16.7517 27.7081C16.7877 25.8961 17.0277 25.6801 18.1557 25.6801H21.4917V23.6401H19.1037C15.0477 23.6401 14.0397 24.6121 14.0397 28.4881C14.0397 32.2081 14.8677 33.1441 18.1917 33.1441C21.4437 33.1441 22.2597 32.4721 22.2597 29.7721ZM16.7517 29.7961C16.7517 28.8241 17.1837 28.4161 18.1917 28.4161C19.4757 28.4161 19.6197 28.5481 19.6197 29.7841C19.6197 31.0801 19.4757 31.2241 18.1917 31.2241C16.8957 31.2241 16.7517 31.0801 16.7517 29.7961Z" fill="#F5F7F9"/>
<path d="M27.1091 25.4161C28.4531 25.4161 28.5971 25.7041 28.5971 28.3201C28.5971 30.9361 28.4531 31.2241 27.1091 31.2241C25.7651 31.2241 25.6211 30.9361 25.6211 28.3201C25.6211 25.7041 25.7651 25.4161 27.1091 25.4161ZM22.9811 28.3201C22.9811 32.1841 23.8091 33.1441 27.1091 33.1441C30.4091 33.1441 31.2371 32.1841 31.2371 28.3201C31.2371 24.4561 30.4091 23.4961 27.1091 23.4961C23.8091 23.4961 22.9811 24.4561 22.9811 28.3201Z" fill="#F5F7F9"/>
<path d="M36.0376 31.2241C34.6336 31.2241 34.4776 31.1281 34.4776 30.2641H32.0776C32.0776 32.5681 32.8816 33.1441 36.1096 33.1441C39.4456 33.1441 40.2856 32.6281 40.2856 30.5761C40.2856 29.1121 39.7696 28.3801 38.6176 28.2241C39.5776 28.0561 39.9976 27.3721 39.9976 26.0161C39.9976 24.0001 39.2176 23.4961 36.1096 23.4961C33.0136 23.4961 32.2456 24.0361 32.2456 26.1961H34.5256C34.5256 25.5001 34.7776 25.4161 36.1096 25.4161C37.4656 25.4161 37.7176 25.5601 37.7176 26.3281C37.7176 27.1201 37.4656 27.2641 36.1096 27.2641H34.5856V29.1841H36.0376C37.5976 29.1841 37.8856 29.3401 37.8856 30.1921C37.8856 31.0561 37.5976 31.2241 36.0376 31.2241Z" fill="#F5F7F9"/>
<path d="M59.8528 28.2241V30.2641H62.3608V32.7601H64.4008V30.2641H66.8968V28.2241H64.4008V25.7161H62.3608V28.2241H59.8528Z" fill="#00FFC2"/>
<path d="M75.8132 33.0001V30.8401H72.1652L74.7692 28.6081C75.7412 27.7681 75.5852 27.2401 75.6212 25.8961C75.6932 23.9761 74.9372 23.4961 71.8292 23.4961C68.8412 23.4961 67.9772 24.1441 67.9772 26.7361H70.6172C70.6172 25.6681 70.7372 25.5361 71.8172 25.5361C73.0412 25.5361 73.1732 25.6321 73.1732 26.3521C73.1732 26.8681 72.9812 27.1681 72.1892 27.8281L68.0492 31.3201V33.0001H75.8132Z" fill="#00FFC2"/>
<path d="M78.461 33.0001H80.141L85.757 23.6401H84.077L78.461 33.0001ZM76.649 25.9081C76.649 27.8281 77.117 28.3081 78.989 28.3081C80.861 28.3081 81.329 27.8281 81.329 25.9081C81.329 23.9881 80.861 23.5081 78.989 23.5081C77.117 23.5081 76.649 23.9881 76.649 25.9081ZM78.053 25.9081C78.053 24.7801 78.149 24.6601 78.989 24.6601C79.829 24.6601 79.925 24.7801 79.925 25.9081C79.925 27.0361 79.829 27.1561 78.989 27.1561C78.149 27.1561 78.053 27.0361 78.053 25.9081ZM82.829 30.7441C82.829 32.6641 83.297 33.1441 85.169 33.1441C87.041 33.1441 87.509 32.6641 87.509 30.7441C87.509 28.8241 87.041 28.3441 85.169 28.3441C83.297 28.3441 82.829 28.8241 82.829 30.7441ZM84.233 30.7441C84.233 29.6161 84.329 29.4961 85.169 29.4961C86.009 29.4961 86.105 29.6161 86.105 30.7441C86.105 31.8721 86.009 31.9921 85.169 31.9921C84.329 31.9921 84.233 31.8721 84.233 30.7441Z" fill="#00FFC2"/>
<path d="M20.5441 1.74882L4.64643 17.6465L6.00001 18.8256L20.5441 4.5768L32 14L43.5 1.74882L42 0.5L32 11.2659L20.5441 1.74882Z" fill="#00FFC2"/>
</svg>
