<svg width="36" height="51" viewBox="0 0 36 51" fill="none" xmlns="http://www.w3.org/2000/svg">
<path d="M0.125 30.3227V6.37057L18.5417 0.504256V40.1251L0.125 30.3227Z" fill="black" stroke="#353535" stroke-width="0.25"/>
<path d="M0.125 30.198V6.55538L18.5417 17.7369V40.1239L0.125 30.198Z" fill="#F5F7F9" stroke="#353535" stroke-width="0.25"/>
<path d="M18.7916 40.1557V17.7555L35.8735 11.8426L35.6837 34.1127L18.7916 40.1557Z" fill="#F5F7F9" stroke="#353535" stroke-width="0.25"/>
<path d="M25.3334 28.3333L30.6667 26.3333V35.8283L25.3334 37.8283V28.3333Z" fill="#353535"/>
<path d="M18.6813 17.5292L0.298882 6.36848L18.6482 0.470499L35.7184 11.6318L18.6813 17.5292Z" fill="#F5F7F9" stroke="#353535" stroke-width="0.25"/>
<path d="M4.98691 44.3665V47.6665H6.03191V45.8515C6.03191 45.384 6.18591 45.1805 6.53791 45.1805C6.97791 45.1805 7.02741 45.252 7.02741 45.89V47.6665H8.06141V45.8515C8.05591 45.384 8.20991 45.1805 8.57291 45.1805C9.00741 45.1805 9.05691 45.252 9.05691 45.89V47.6665H10.1019V45.7525C10.1019 44.592 9.84891 44.3005 8.84241 44.3005C8.32541 44.3005 8.04491 44.5095 7.94591 44.977C7.85791 44.449 7.56091 44.3005 6.80741 44.3005C6.39491 44.3005 6.14191 44.438 6.03191 44.746V44.3665H4.98691ZM12.7254 47.925L13.6824 44.3665H12.6594L12.0269 46.8085H11.9939L11.3284 44.3665H10.2394L11.1524 47.5565H11.8124L11.7849 47.65C11.7244 47.8645 11.6694 47.8865 11.2514 47.8865H10.6299V48.7665H11.3834C12.2634 48.7665 12.5439 48.596 12.7254 47.925ZM15.6324 44.3665V47.6665H16.6774V45.813C16.6774 45.4445 16.8479 45.285 17.2549 45.2905L17.9974 45.3015V44.3665H17.6179C17.0679 44.3665 16.7709 44.5535 16.6774 44.977V44.3665H15.6324ZM19.9994 45.1255C20.5659 45.1255 20.6264 45.2135 20.6264 46.0165C20.6264 46.8195 20.5659 46.9075 19.9994 46.9075C19.4329 46.9075 19.3724 46.8195 19.3724 46.0165C19.3724 45.2135 19.4329 45.1255 19.9994 45.1255ZM18.2724 46.0165C18.2724 47.3915 18.6189 47.7325 19.9994 47.7325C21.3799 47.7325 21.7264 47.3915 21.7264 46.0165C21.7264 44.6415 21.3799 44.3005 19.9994 44.3005C18.6189 44.3005 18.2724 44.6415 18.2724 46.0165ZM23.786 45.1255C24.3525 45.1255 24.413 45.2135 24.413 46.0165C24.413 46.8195 24.3525 46.9075 23.786 46.9075C23.2195 46.9075 23.159 46.8195 23.159 46.0165C23.159 45.2135 23.2195 45.1255 23.786 45.1255ZM22.059 46.0165C22.059 47.3915 22.4055 47.7325 23.786 47.7325C25.1665 47.7325 25.513 47.3915 25.513 46.0165C25.513 44.6415 25.1665 44.3005 23.786 44.3005C22.4055 44.3005 22.059 44.6415 22.059 46.0165ZM25.9557 44.3665V47.6665H27.0007V45.8515C27.0007 45.384 27.1547 45.1805 27.5067 45.1805C27.9467 45.1805 27.9962 45.252 27.9962 45.89V47.6665H29.0302V45.8515C29.0247 45.384 29.1787 45.1805 29.5417 45.1805C29.9762 45.1805 30.0257 45.252 30.0257 45.89V47.6665H31.0707V45.7525C31.0707 44.592 30.8177 44.3005 29.8112 44.3005C29.2942 44.3005 29.0137 44.5095 28.9147 44.977C28.8267 44.449 28.5297 44.3005 27.7762 44.3005C27.3637 44.3005 27.1107 44.438 27.0007 44.746V44.3665H25.9557Z" fill="white"/>
</svg>
