<svg width="213" height="314" viewBox="0 0 213 314" fill="none" xmlns="http://www.w3.org/2000/svg">
    <path d="M23.2695 256.393C22.2484 255.409 21.1554 254.359 20.088 253.32C20.0638 253.296 20.041 253.272 20.0113 253.247C19.8878 253.111 19.7436 252.996 19.5847 252.907L19.5715 252.897C16.5444 251.591 13.5184 250.281 10.4937 248.969L2.39706 245.462L2.18516 245.365C1.94267 245.251 1.66216 245.121 1.34836 245.106C1.26214 245.105 1.17765 245.122 1.10084 245.157L1.01521 245.209C0.905871 245.293 0.817234 245.4 0.75549 245.524L0.729827 245.574L0.694974 245.873L0.703555 245.922C1.87765 251.225 3.09067 256.61 4.25875 261.818C5.15816 265.83 6.09495 269.984 7.00502 274.062C7.05828 274.337 7.27656 274.55 7.57036 274.627L7.63444 274.638C7.7637 274.664 7.89554 274.654 8.01613 274.611C8.13672 274.567 8.24163 274.491 8.31986 274.39L14.2959 267.727C15.7506 266.106 17.2074 264.48 18.6635 262.86L20.4518 260.863C21.4319 259.767 22.4446 258.635 23.4464 257.536L23.4985 257.48L23.5077 257.4C23.5538 257.175 23.6138 256.707 23.2695 256.393ZM16.9762 258.107C15.7046 258.532 14.4069 258.974 13.1016 259.407L15.5245 257.441C16.5328 256.616 17.584 255.764 18.6133 254.93L18.635 254.914C18.7238 254.823 18.8327 254.742 18.9479 254.655C19.0258 254.596 19.1123 254.537 19.1932 254.465C19.6307 254.882 20.0733 255.305 20.4985 255.718C20.8048 256.018 21.1179 256.32 21.4381 256.621C19.947 257.106 18.4597 257.602 16.9762 258.107ZM13.9369 257.259C12.8983 258.112 11.8247 258.985 10.7595 259.847C9.18664 257.268 7.60783 254.691 6.0231 252.119L3.89663 248.663L3.89187 248.655C3.73017 248.408 3.57647 248.14 3.42254 247.888C3.32442 247.717 3.21853 247.552 3.11345 247.38C3.83743 247.705 4.56967 248.02 5.28896 248.324C5.9212 248.594 6.57787 248.875 7.22118 249.16L18.107 253.869C16.7078 255.001 15.2995 256.149 13.9369 257.259ZM9.2173 269.433C9.3681 268.76 9.52814 268.068 9.67279 267.386C9.79598 266.839 9.91907 266.282 10.0406 265.75C10.231 264.895 10.4332 264.011 10.6138 263.142L10.6501 262.989C10.7797 262.437 10.9112 261.868 11.0179 261.292C11.0978 261.262 11.1799 261.239 11.2635 261.221C11.3649 261.193 11.4655 261.17 11.5684 261.128C13.1475 260.593 14.7284 260.063 16.3111 259.538C17.89 259.012 19.5097 258.466 21.1159 257.925C19.5086 259.705 17.9065 261.489 16.3096 263.279C14.9595 264.783 13.5709 266.335 12.1911 267.863C11.648 268.475 11.0826 269.097 10.5467 269.697C9.94311 270.366 9.32485 271.051 8.72019 271.741C8.87554 270.967 9.04407 270.19 9.2173 269.433ZM2.45913 248.84C2.40294 248.59 2.33904 248.332 2.28901 248.09C3.77984 250.523 5.28036 252.97 6.74531 255.344C7.5018 256.575 8.25895 257.8 9.01463 259.038C9.16526 259.27 9.31426 259.517 9.45711 259.755C9.6447 260.061 9.83066 260.38 10.0377 260.689C9.8816 261.348 9.73841 262.017 9.5915 262.657C9.49375 263.107 9.39584 263.558 9.29031 264.013L9.28967 264.019C9.23612 264.308 9.16275 264.597 9.09731 264.879L8.7984 266.154L8.78625 266.198C8.51711 267.498 8.22004 268.806 7.93448 270.077C7.81512 270.602 7.6997 271.143 7.57732 271.682C7.55663 271.579 7.53053 271.473 7.5078 271.376C7.44062 271.092 7.37747 270.808 7.31838 270.523L6.85447 268.463L2.45773 248.84" fill="url(#paint0_linear_0_1)"/>
    <path d="M24 267.997C24 267.997 79.9005 117.398 101.034 180.147C122.167 242.897 142.618 385.51 169.546 267.997C196.474 150.484 203 9 203 9" stroke="url(#paint1_linear_0_1)" stroke-dasharray="7 7"/>
    <path d="M197.417 1.52576L197.446 13.7307L208.936 17.3786L197.417 1.52576ZM197.475 26.2493L197.494 34.5423L208.948 19.2988L197.475 26.2493Z" fill="black" fill-opacity="0.298"/>
    <path d="M197.743 24.1802L208.685 17.4243L197.771 13.969L197.743 24.1802Z" fill="black" fill-opacity="0.801"/>
    <path d="M187.51 19.0096L198.422 23.7974L198.45 13.5863L187.51 19.0096Z" fill="black" fill-opacity="0.298"/>
    <defs>
    <linearGradient id="paint0_linear_0_1" x1="12.9443" y1="252.255" x2="8.98683" y2="270.269" gradientUnits="userSpaceOnUse">
    <stop stop-color="#353535"/>
    <stop offset="1" stop-color="#353535" stop-opacity="0"/>
    </linearGradient>
    <linearGradient id="paint1_linear_0_1" x1="113.5" y1="9" x2="113.5" y2="313" gradientUnits="userSpaceOnUse">
    <stop stop-color="#353535"/>
    <stop offset="1" stop-color="#353535" stop-opacity="0"/>
    </linearGradient>
    </defs>
    </svg>
    